# xmcd
#
# Track frame offsets: 
#        150
#        18888
#        34203
#        52195
#        67783
#        90100
#        105070
#        126923
#        149443
#        167333
#        185458
#        202315
#        217338
#        235335
#        247828
#        261990
#        277065
#        290883
#        306043
#
# Disc length: 4326 seconds
#
# Revision: 1
# Processed by: cddbd v1.5.1PL2 Copyright (c) Steve Scherf et al.
# Submitted via: ExactAudioCopy v0.95a5
#
DISCID=1a10e413
DTITLE=木村好夫 - Denon Hi Fi Acoustic Guitar
DYEAR=1998
DGENRE=Acoustic
TTITLE0=哀愁海峡
TTITLE1=含泪爱情
TTITLE2=通往小岛的游船
TTITLE3=小巷人生
TTITLE4=萤火虫
TTITLE5=轮回变迁
TTITLE6=喝酒
TTITLE7=空白日记
TTITLE8=凤仙花
TTITLE9=品酒
TTITLE10=往返的船
TTITLE11=女人的阶层
TTITLE12=幸福
TTITLE13=堪太郎的月夜
TTITLE14=酒馆
TTITLE15=路边的草帽
TTITLE16=酒啊，含泪的叹息
TTITLE17=左渡情话
TTITLE18=冰雨
EXTD=
EXTT0=
EXTT1=
EXTT2=
EXTT3=
EXTT4=
EXTT5=
EXTT6=
EXTT7=
EXTT8=
EXTT9=
EXTT10=
EXTT11=
EXTT12=
EXTT13=
EXTT14=
EXTT15=
EXTT16=
EXTT17=
EXTT18=
PLAYORDER=
